<svg width="85" height="79" viewBox="0 0 85 79" fill="none" xmlns="http://www.w3.org/2000/svg">
<path d="M2.78947 14.4193C3.82121 13.0754 31.5453 28.8637 32.3463 24.1439C32.476 23.3813 32.5636 22.8274 32.6194 22.4349L32.3463 22.7032C32.3463 22.7032 32.9096 20.3982 32.6194 22.4349L39.6747 15.4998L41.184 17.3006L43.7331 14.4193L50.5835 24.1439C61.645 19.759 67.5612 15.492 77.6668 5.05481C78.5876 9.11776 78.6226 23.7837 77.9854 24.8643C77.3481 25.9448 76.4216 28.2972 72.4094 31.3473C69.0052 33.9351 61.5761 39.6313 61.5761 39.6313L81.0123 59.4407L74.7991 72.7671C73.1037 68.749 72.2747 68.2059 68.9045 63.7628L50.1056 43.9534V46.8347L42.7772 54.3983L40.0688 51.1568L38.9537 52.5975L33.537 45.394C33.537 45.394 11.5518 74.5679 10.7991 75.2883C10.0542 76.0014 4.83444 62.0952 4.70365 61.9619C4.70183 61.9634 4.70103 61.9634 4.70122 61.9619C4.70148 61.9605 4.70228 61.9605 4.70365 61.9619C4.9285 61.7847 20.6326 41.072 20.6326 41.072L2.78947 33.7692C1.71617 29.4124 1.75772 15.7631 2.78947 14.4193Z" fill="black"/>
<path d="M3.77714 14.4193C4.80888 13.0754 32.5329 28.8637 33.334 24.1439C34.135 19.4241 33.334 22.7032 33.334 22.7032L40.6624 15.4998L42.1717 17.3006L44.7207 14.4193L51.5712 24.1439C62.6326 19.759 68.5489 15.492 78.6544 5.05481C79.5753 9.11776 79.6103 23.7837 78.9731 24.8643C78.3358 25.9448 77.4092 28.2972 73.3971 31.3473C69.9929 33.9351 62.5638 39.6313 62.5638 39.6313L82 59.4407L75.7868 72.7671C74.0914 68.749 73.2623 68.2059 69.8922 63.7628L51.0933 43.9534V46.8347L43.7648 54.3983L41.0565 51.1568L39.9413 52.5975L34.5247 45.394C34.5247 45.394 12.5395 74.5679 11.7868 75.2883C11.0342 76.0086 5.71388 61.8063 5.6889 61.9619C5.66395 62.1175 21.6203 41.072 21.6203 41.072L3.77714 33.7692C2.70384 29.4124 2.74539 15.7631 3.77714 14.4193Z" stroke="#C8CED9" stroke-width="5"/>
<path d="M23.6492 56.618L20.2834 43.4149L9.64694 57.2734L13.0127 70.4765L23.6492 56.618Z" fill="#FF0000"/>
<path d="M20.2834 43.4149L23.6494 56.6177L13.0127 70.4764L9.64703 57.2732L20.2834 43.4149Z" fill="#FF0000"/>
<path d="M11.0565 55.4786L9.64703 57.1572L12.7969 70.7683L14.2064 69.0898L11.0565 55.4786Z" fill="white"/>
<path d="M20.2628 43.233L18.8872 45.0492L22.3187 58.4196L23.6944 56.6034L20.2628 43.233Z" fill="white"/>
</svg>
