<svg width="51" height="49" viewBox="0 0 51 49" fill="none" xmlns="http://www.w3.org/2000/svg">
<path d="M42.8767 34.7982C42.4782 34.7993 42.0829 34.7321 41.7101 34.6C41.2965 34.4557 40.9175 34.2357 40.5952 33.9528C40.2729 33.6699 40.0136 33.3297 39.8324 32.952L35.7603 24.4511C35.6603 24.2027 35.6649 23.9279 35.7731 23.6827C35.8814 23.4374 36.0853 23.2401 36.3431 23.131C36.601 23.022 36.8934 23.0093 37.1609 23.0957C37.4283 23.182 37.6506 23.3609 37.7825 23.5958L41.8601 32.0967C41.92 32.2231 42.0062 32.3371 42.1136 32.4319C42.2209 32.5268 42.3473 32.6006 42.4853 32.6492C42.6234 32.6977 42.7703 32.72 42.9176 32.7146C43.0649 32.7093 43.2097 32.6766 43.3433 32.6182L47.7876 30.6677C48.0352 30.5544 48.2291 30.3588 48.3317 30.1188C48.4344 29.8789 48.4384 29.6117 48.3431 29.3691L40.7212 9.24845C40.6611 9.11745 40.6302 8.97626 40.6305 8.83361C40.6307 8.69095 40.6622 8.54987 40.7229 8.41908C40.7835 8.28829 40.8721 8.17057 40.9832 8.07321C41.0943 7.97584 41.2254 7.9009 41.3685 7.85301C41.5117 7.80512 41.6638 7.78531 41.8154 7.79479C41.967 7.80427 42.1149 7.84285 42.25 7.90813C42.3851 7.97342 42.5045 8.06404 42.6009 8.17437C42.6972 8.2847 42.7684 8.41241 42.81 8.5496L50.4652 28.665C50.7433 29.399 50.7198 30.204 50.3993 30.9225C50.0787 31.6411 49.4842 32.2216 48.732 32.5504L44.2877 34.5062C43.8453 34.6979 43.364 34.7976 42.8767 34.7982Z" fill="white"/>
<path d="M25.6552 13.593C25.3982 13.5937 25.1488 13.5108 24.9497 13.3583C20.3721 10.1092 17.0278 3.89253 16.8889 3.62655C16.7854 3.43151 16.7496 3.21093 16.7864 2.99579C16.8233 2.78066 16.931 2.58176 17.0944 2.42703C19.5443 0.111433 24.9997 0.0332031 25.6552 0.0332031C26.3107 0.0332031 31.766 0.111433 34.2104 2.42703C34.3747 2.58116 34.4834 2.77977 34.5213 2.99493C34.5592 3.21009 34.5243 3.43098 34.4215 3.62655C34.2826 3.89253 30.9494 10.0831 26.3885 13.3322C26.1859 13.4999 25.9252 13.5926 25.6552 13.593ZM19.2999 3.4388C20.2388 5.02946 22.6331 8.82099 25.6552 11.2148C28.655 8.82099 31.0716 5.02946 32.016 3.4388C30.1994 2.37487 26.9162 2.11932 25.6552 2.11932C24.3941 2.11932 21.1165 2.37487 19.2999 3.4388Z" fill="white"/>
<path d="M8.43373 34.7982C7.94832 34.7968 7.46893 34.6972 7.02823 34.5062L2.58399 32.5504C1.83175 32.2216 1.23723 31.6411 0.916683 30.9225C0.596139 30.204 0.572622 29.399 0.850732 28.665L8.50595 8.5496C8.5476 8.41241 8.61879 8.2847 8.71511 8.17437C8.81143 8.06404 8.93083 7.97342 9.06594 7.90813C9.20104 7.84285 9.34898 7.80427 9.5006 7.79479C9.65221 7.78531 9.80429 7.80512 9.94743 7.85301C10.0906 7.9009 10.2217 7.97584 10.3328 8.07321C10.4438 8.17057 10.5324 8.28829 10.5931 8.41908C10.6538 8.54987 10.6852 8.69095 10.6855 8.83361C10.6858 8.97626 10.6549 9.11745 10.5947 9.24845L2.94508 29.3639C2.84975 29.6065 2.8538 29.8737 2.95645 30.1136C3.0591 30.3536 3.25303 30.5492 3.50061 30.6625L7.94486 32.613C8.07854 32.6714 8.22324 32.7041 8.37055 32.7094C8.51785 32.7147 8.66481 32.6925 8.80286 32.6439C8.94091 32.5954 9.06729 32.5216 9.17464 32.4267C9.28198 32.3319 9.36816 32.2179 9.42813 32.0915L13.5002 23.5905C13.621 23.3381 13.8437 23.1411 14.1192 23.0428C14.3948 22.9445 14.7007 22.953 14.9695 23.0664C15.2384 23.1798 15.4483 23.3889 15.553 23.6476C15.6577 23.9063 15.6487 24.1934 15.5279 24.4459L11.4891 32.952C11.3079 33.3297 11.0487 33.6699 10.7263 33.9528C10.404 34.2357 10.0251 34.4557 9.61145 34.6C9.23516 34.7334 8.83593 34.8006 8.43373 34.7982Z" fill="white"/>
<path d="M34.0215 28.1961H29.5439C29.2493 28.1961 28.9666 28.0862 28.7583 27.8906C28.5499 27.695 28.4329 27.4297 28.4329 27.1531C28.4329 26.8764 28.5499 26.6111 28.7583 26.4155C28.9666 26.2199 29.2493 26.11 29.5439 26.11H34.0215C34.261 26.1136 34.4953 26.0445 34.6895 25.9129C34.8837 25.7813 35.0274 25.5943 35.0992 25.3799L40.549 9.09767C37.8769 5.99456 33.0715 4.14834 33.0215 4.1327C32.8859 4.08202 32.7621 4.00674 32.6574 3.91117C32.5527 3.8156 32.4691 3.7016 32.4113 3.57568C32.3535 3.44977 32.3227 3.3144 32.3207 3.17732C32.3186 3.04023 32.3454 2.90411 32.3994 2.77672C32.4533 2.64933 32.5335 2.53317 32.6353 2.43488C32.7371 2.33658 32.8586 2.25807 32.9927 2.20383C33.1268 2.14959 33.271 2.12068 33.417 2.11876C33.563 2.11683 33.708 2.14192 33.8437 2.1926C34.0826 2.28648 39.7379 4.4404 42.6711 8.29451C42.7709 8.42581 42.8368 8.57703 42.8638 8.7363C42.8908 8.89556 42.8781 9.05853 42.8267 9.21241L37.2047 26.0057C36.9917 26.6414 36.5681 27.1968 35.9956 27.5907C35.423 27.9847 34.7314 28.1968 34.0215 28.1961Z" fill="white"/>
<path d="M21.7665 28.1961H17.2889C16.58 28.1957 15.8896 27.9831 15.3182 27.5892C14.7467 27.1953 14.324 26.6406 14.1113 26.0057L8.4893 9.21241C8.43788 9.05853 8.42516 8.89556 8.45215 8.7363C8.47914 8.57703 8.5451 8.42581 8.64485 8.29451C11.5781 4.4404 17.2334 2.28648 17.4722 2.1926C17.7463 2.09025 18.0524 2.09429 18.3233 2.20383C18.5942 2.31337 18.8076 2.51945 18.9166 2.77672C19.0256 3.03399 19.0213 3.32139 18.9047 3.57568C18.788 3.82998 18.5685 4.03034 18.2944 4.1327C18.2444 4.1327 13.428 5.99456 10.7836 9.09767L16.2112 25.3799C16.2819 25.5909 16.4222 25.7754 16.612 25.9067C16.8017 26.0379 17.031 26.1091 17.2667 26.11H21.7665C22.0612 26.11 22.3438 26.2199 22.5521 26.4155C22.7605 26.6111 22.8775 26.8764 22.8775 27.1531C22.8775 27.4297 22.7605 27.695 22.5521 27.8906C22.3438 28.0862 22.0612 28.1961 21.7665 28.1961Z" fill="white"/>
<path d="M34.5437 32.3682C34.249 32.3682 33.9664 32.2583 33.758 32.0627C33.5497 31.8671 33.4326 31.6018 33.4326 31.3252V27.1529C33.4326 26.8763 33.5497 26.611 33.758 26.4154C33.9664 26.2198 34.249 26.1099 34.5437 26.1099C34.8384 26.1099 35.121 26.2198 35.3293 26.4154C35.5377 26.611 35.6547 26.8763 35.6547 27.1529V31.3252C35.6547 31.6018 35.5377 31.8671 35.3293 32.0627C35.121 32.2583 34.8384 32.3682 34.5437 32.3682Z" fill="white"/>
<path d="M16.7666 32.3682C16.4719 32.3682 16.1893 32.2583 15.9809 32.0627C15.7726 31.8671 15.6555 31.6018 15.6555 31.3252V27.1529C15.6555 26.8763 15.7726 26.611 15.9809 26.4154C16.1893 26.2198 16.4719 26.1099 16.7666 26.1099C17.0613 26.1099 17.3439 26.2198 17.5522 26.4154C17.7606 26.611 17.8776 26.8763 17.8776 27.1529V31.3252C17.8776 31.6018 17.7606 31.8671 17.5522 32.0627C17.3439 32.2583 17.0613 32.3682 16.7666 32.3682Z" fill="white"/>
<path d="M27.0329 48.0141C26.3941 48.0141 25.9219 48.0141 25.6385 48.0141C24.7886 48.0454 16.8612 48.2488 11.2503 46.0949C10.6658 45.8714 10.1387 45.5336 9.7041 45.104C9.2695 44.6743 8.93734 44.1627 8.72974 43.6032C8.52214 43.0437 8.44386 42.4491 8.50011 41.859C8.55635 41.2688 8.74584 40.6967 9.05595 40.1807L14.0557 31.8884C14.3494 31.4108 14.7723 31.0146 15.2815 30.7399C15.7907 30.4651 16.3683 30.3216 16.9556 30.3238H21.8387C22.1334 30.3238 22.416 30.4337 22.6243 30.6293C22.8327 30.8249 22.9498 31.0902 22.9498 31.3668C22.9498 31.6435 22.8327 31.9088 22.6243 32.1044C22.416 32.3 22.1334 32.4099 21.8387 32.4099H16.9556C16.7598 32.4092 16.5673 32.457 16.3976 32.5486C16.2278 32.6402 16.0869 32.7723 15.989 32.9314L10.9892 41.2185C10.8334 41.4743 10.7384 41.7587 10.7106 42.0521C10.6828 42.3456 10.7229 42.6412 10.8281 42.9187C10.9311 43.2011 11.0975 43.4594 11.316 43.6763C11.5346 43.8931 11.8001 44.0634 12.0947 44.1756C17.2722 46.1314 24.7608 45.928 25.5941 45.928H25.7163C26.5552 45.9593 34.0493 46.147 39.2157 44.1652C39.5114 44.0536 39.778 43.8836 39.9975 43.6667C40.217 43.4498 40.3842 43.1912 40.4879 42.9083C40.5919 42.6303 40.6309 42.3345 40.6021 42.0411C40.5733 41.7477 40.4775 41.4636 40.3212 41.2081L35.3214 32.9158C35.2236 32.7566 35.0826 32.6245 34.9129 32.533C34.7431 32.4414 34.5506 32.3935 34.3548 32.3943H29.4661C29.1715 32.3943 28.8889 32.2844 28.6805 32.0887C28.4721 31.8931 28.3551 31.6278 28.3551 31.3512C28.3551 31.0746 28.4721 30.8092 28.6805 30.6136C28.8889 30.418 29.1715 30.3081 29.4661 30.3081H34.3548C34.9422 30.3059 35.5197 30.4495 36.0289 30.7242C36.5382 30.999 36.961 31.3952 37.2547 31.8727L42.2545 40.1651C42.5638 40.6827 42.752 41.2564 42.8064 41.8478C42.8608 42.4392 42.7801 43.0347 42.5698 43.5945C42.3594 44.1542 42.0243 44.6655 41.5867 45.0939C41.1491 45.5224 40.6192 45.8583 40.0323 46.0792C35.6048 47.7846 29.8217 48.0141 27.0329 48.0141Z" fill="white"/>
<path d="M35.5491 27.6223C35.3111 27.6218 35.0795 27.5496 34.8884 27.4163C34.6974 27.283 34.5571 27.0956 34.488 26.8817C31.9437 18.9962 25.0051 13.4002 24.9385 13.348C24.8268 13.2597 24.7348 13.1515 24.6677 13.0298C24.6006 12.9081 24.5597 12.7751 24.5473 12.6386C24.535 12.502 24.5514 12.3645 24.5956 12.2339C24.6398 12.1032 24.711 11.9821 24.8051 11.8773C24.9952 11.6657 25.267 11.5336 25.5608 11.5101C25.7063 11.4985 25.8528 11.5139 25.9919 11.5554C26.131 11.5969 26.2601 11.6638 26.3717 11.7521C26.6773 11.9972 33.8769 17.7862 36.6102 26.2767C36.653 26.4079 36.6679 26.5457 36.6539 26.6823C36.64 26.8188 36.5975 26.9514 36.5288 27.0726C36.4602 27.1937 36.3668 27.3009 36.254 27.3881C36.1411 27.4752 36.0111 27.5406 35.8713 27.5806C35.7662 27.6072 35.6579 27.6212 35.5491 27.6223Z" fill="white"/>
<path d="M31.766 42.2771C31.6847 42.285 31.6028 42.285 31.5215 42.2771C31.3677 42.2437 31.2233 42.1799 31.0978 42.09C30.9723 42 30.8687 41.886 30.7938 41.7555L25.9051 33.4111C25.8322 33.2895 25.7854 33.1556 25.7676 33.0171C25.7497 32.8786 25.7611 32.7381 25.8011 32.6037C25.8411 32.4693 25.9089 32.3437 26.0006 32.2339C26.0923 32.1241 26.2062 32.0323 26.3357 31.9638C26.4651 31.8953 26.6077 31.8515 26.7553 31.8347C26.9028 31.8179 27.0525 31.8286 27.1956 31.8662C27.3388 31.9037 27.4726 31.9673 27.5896 32.0534C27.7066 32.1395 27.8043 32.2464 27.8773 32.368L32.166 39.6694L34.0825 38.3865L28.5939 32.0134C28.4972 31.9071 28.4243 31.7837 28.3795 31.6505C28.3346 31.5173 28.3187 31.377 28.3327 31.2379C28.3467 31.0988 28.3903 30.9637 28.461 30.8408C28.5317 30.7178 28.6279 30.6094 28.7441 30.522C28.8602 30.4347 28.9939 30.3701 29.1371 30.3322C29.2803 30.2942 29.4302 30.2837 29.5779 30.3012C29.7255 30.3187 29.868 30.3638 29.9967 30.434C30.1254 30.5041 30.2378 30.5978 30.3271 30.7095L36.5213 37.9745C36.6159 38.0852 36.6854 38.2129 36.7256 38.3498C36.7658 38.4867 36.7758 38.6298 36.755 38.7704C36.7342 38.911 36.683 39.0462 36.6046 39.1676C36.5262 39.289 36.4223 39.3941 36.2991 39.4765L32.4104 42.0841C32.2222 42.2097 31.9969 42.2772 31.766 42.2771Z" fill="white"/>
<path d="M19.5444 42.277C19.3134 42.2771 19.0882 42.2097 18.8999 42.0841L15.0112 39.4764C14.8881 39.394 14.7841 39.2889 14.7057 39.1675C14.6273 39.0461 14.5762 38.911 14.5554 38.7704C14.5346 38.6297 14.5446 38.4866 14.5847 38.3498C14.6249 38.2129 14.6944 38.0852 14.789 37.9744L20.9832 30.7095C21.1706 30.5034 21.4362 30.3739 21.7235 30.3484C22.0109 30.3229 22.2976 30.4034 22.5229 30.5728C22.7481 30.7423 22.8943 30.9874 22.9304 31.2563C22.9666 31.5251 22.8898 31.7966 22.7164 32.0133L17.2556 38.4177L19.1721 39.7007L23.4608 32.3992C23.5316 32.2794 23.6268 32.1738 23.7411 32.0885C23.8553 32.0032 23.9863 31.9398 24.1266 31.9021C24.2669 31.8643 24.4138 31.8528 24.5588 31.8683C24.7039 31.8838 24.8442 31.926 24.9719 31.9924C25.0996 32.0589 25.212 32.1483 25.3029 32.2555C25.3938 32.3628 25.4613 32.4858 25.5015 32.6175C25.5417 32.7492 25.5539 32.8871 25.5374 33.0232C25.5209 33.1594 25.476 33.2912 25.4052 33.411L20.5165 41.7555C20.4417 41.886 20.338 42 20.2125 42.0899C20.0871 42.1798 19.9426 42.2436 19.7888 42.277C19.7075 42.285 19.6256 42.285 19.5444 42.277Z" fill="white"/>
<path d="M27.3218 33.9325H23.9886C23.1046 33.9325 22.2568 33.6028 21.6317 33.016C21.0066 32.4291 20.6554 31.6332 20.6554 30.8033V27.6741C20.6554 26.8442 21.0066 26.0483 21.6317 25.4614C22.2568 24.8746 23.1046 24.5449 23.9886 24.5449H27.3218C28.2058 24.5449 29.0536 24.8746 29.6787 25.4614C30.3038 26.0483 30.6549 26.8442 30.6549 27.6741V30.8033C30.6549 31.6332 30.3038 32.4291 29.6787 33.016C29.0536 33.6028 28.2058 33.9325 27.3218 33.9325ZM23.9886 26.631C23.6939 26.631 23.4113 26.7409 23.2029 26.9365C22.9946 27.1322 22.8775 27.3975 22.8775 27.6741V30.8033C22.8775 31.0799 22.9946 31.3452 23.2029 31.5408C23.4113 31.7365 23.6939 31.8463 23.9886 31.8463H27.3218C27.6164 31.8463 27.899 31.7365 28.1074 31.5408C28.3158 31.3452 28.4328 31.0799 28.4328 30.8033V27.6741C28.4328 27.3975 28.3158 27.1322 28.1074 26.9365C27.899 26.7409 27.6164 26.631 27.3218 26.631H23.9886Z" fill="white"/>
</svg>
